<svg  xmlns="http://www.w3.org/2000/svg"
      xmlns:xlink="http://www.w3.org/1999/xlink" viewBox="0 0 4 4">
                                        <rect x="0" y="0" height="1" width="1" fill="rgb(203,169,99)"/>
                                                <rect x="3" y="0" height="1" width="1" fill="rgb(203,169,99)"/>
                                                <rect x="1" y="0" height="1" width="1" fill="rgb(203,169,99)"/>
                                                <rect x="2" y="0" height="1" width="1" fill="rgb(203,169,99)"/>
                                                            <rect x="0" y="1" height="1" width="1" fill="rgb(206,61,84)"/>
                                                <rect x="3" y="1" height="1" width="1" fill="rgb(206,61,84)"/>
                                                <rect x="1" y="1" height="1" width="1" fill="rgb(203,169,99)"/>
                                                <rect x="2" y="1" height="1" width="1" fill="rgb(203,169,99)"/>
                                                            <rect x="0" y="2" height="1" width="1" fill="rgb(203,169,99)"/>
                                                <rect x="3" y="2" height="1" width="1" fill="rgb(203,169,99)"/>
                                                <rect x="1" y="2" height="1" width="1" fill="rgb(206,61,84)"/>
                                                <rect x="2" y="2" height="1" width="1" fill="rgb(206,61,84)"/>
                                                            <rect x="0" y="3" height="1" width="1" fill="rgb(206,61,84)"/>
                                                <rect x="3" y="3" height="1" width="1" fill="rgb(206,61,84)"/>
                                                <rect x="1" y="3" height="1" width="1" fill="rgb(203,169,99)"/>
                                                <rect x="2" y="3" height="1" width="1" fill="rgb(203,169,99)"/>
                        </svg>